<svg width="30" height="30" viewBox="0 0 30 30" fill="none" xmlns="http://www.w3.org/2000/svg">
<path d="M24.1206 8.44431C24.1206 8.65889 24.0782 8.8714 23.9962 9.06965C23.9141 9.26791 23.7936 9.44805 23.642 9.5998C23.4902 9.75155 23.3101 9.8719 23.1117 9.95403C22.9135 10.0362 22.7011 10.0784 22.4865 10.0784C22.2719 10.0784 22.0594 10.0362 21.8611 9.95403C21.6629 9.8719 21.4827 9.75155 21.3309 9.5998C21.1792 9.44805 21.0588 9.26791 20.9768 9.06965C20.8945 8.8714 20.8524 8.65889 20.8524 8.44431C20.8524 8.01091 21.0244 7.59527 21.3309 7.28881C21.6375 6.98235 22.0531 6.81019 22.4865 6.81019C22.9199 6.81019 23.3355 6.98235 23.642 7.28881C23.9484 7.59527 24.1206 8.01091 24.1206 8.44431ZM29.3088 15.8208V15.842L29.2153 21.7643C29.1915 23.9001 28.3324 25.9419 26.8222 27.4523C25.3121 28.9629 23.2705 29.8223 21.1347 29.8467L15.1911 29.9384H15.17L9.24761 29.8449C7.11173 29.8211 5.07004 28.962 3.55951 27.452C2.04895 25.9417 1.18956 23.9001 1.16525 21.7643L1.07349 15.8208V15.7996L1.16702 9.87725C1.19086 7.74137 2.0498 5.69968 3.56002 4.18914C5.07023 2.67859 7.11173 1.81919 9.24761 1.79489L15.1911 1.70312H15.2123L21.1347 1.79666C23.2705 1.8205 25.3123 2.67943 26.8227 4.18965C28.3333 5.69987 29.1927 7.74137 29.2171 9.87725L29.3088 15.8208ZM26.6794 15.8208L26.5876 9.91784C26.5711 8.46598 25.9869 7.07825 24.9604 6.05156C23.9337 5.02489 22.5459 4.44081 21.0941 4.42431L15.1911 4.33254L9.2882 4.42431C7.83634 4.44081 6.44861 5.02489 5.42192 6.05156C4.39525 7.07825 3.81117 8.46598 3.79467 9.91784L3.70291 15.8208L3.79467 21.7237C3.81117 23.1756 4.39525 24.5633 5.42192 25.59C6.44861 26.6167 7.83634 27.2007 9.2882 27.2173L15.1911 27.309L21.0941 27.2173C22.5459 27.2007 23.9337 26.6167 24.9604 25.59C25.9869 24.5633 26.5711 23.1756 26.5876 21.7237L26.6794 15.8208ZM22.4406 15.8208C22.4406 17.7434 21.6768 19.5874 20.3173 20.9469C18.9578 22.3064 17.1138 23.0702 15.1911 23.0702C13.2685 23.0702 11.4246 22.3064 10.065 20.9469C8.70549 19.5874 7.94173 17.7434 7.94173 15.8208C7.94173 13.8981 8.70549 12.0542 10.065 10.6947C11.4246 9.33513 13.2685 8.57136 15.1911 8.57136C17.1138 8.57136 18.9578 9.33513 20.3173 10.6947C21.6768 12.0542 22.4406 13.8981 22.4406 15.8208ZM19.8112 15.8208C19.8112 14.5955 19.3245 13.4204 18.458 12.5539C17.5915 11.6875 16.4164 11.2008 15.1911 11.2008C13.9658 11.2008 12.7907 11.6875 11.9243 12.5539C11.0579 13.4204 10.5711 14.5955 10.5711 15.8208C10.5711 17.0461 11.0579 18.2211 11.9243 19.0876C12.7907 19.9541 13.9658 20.4408 15.1911 20.4408C16.4164 20.4408 17.5915 19.9541 18.458 19.0876C19.3245 18.2211 19.8112 17.0461 19.8112 15.8208Z" fill="black"/>
</svg>
