<svg width="20" height="20" viewBox="0 0 20 20" fill="none" xmlns="http://www.w3.org/2000/svg">
<path fill-rule="evenodd" clip-rule="evenodd" d="M15.7143 6.63036C15.7143 3.28226 13.14 0.476074 9.76665 0.476074C6.39332 0.476074 3.80951 3.28417 3.80951 6.63322C3.80951 7.73798 3.9638 8.57131 4.48713 9.52369H4.47713L9.56999 19.3432C9.76141 19.6056 9.96237 19.328 9.96237 19.328C9.79046 19.5856 15.0552 9.52369 15.0552 9.52369H15.0509C15.569 8.57131 15.7143 7.73607 15.7143 6.63036ZM7.02427 6.44179C7.02427 4.86227 8.25237 3.58274 9.76665 3.58274C11.2805 3.58274 12.5095 4.86227 12.5095 6.44179C12.5095 8.02131 11.2805 9.30131 9.76665 9.30131C8.25237 9.30131 7.02427 8.02179 7.02427 6.44179Z" fill="black"/>
</svg>
