<svg width="276" height="65" viewBox="0 0 276 65" fill="none" xmlns="http://www.w3.org/2000/svg">
<mask id="path-1-outside-1_70_3" maskUnits="userSpaceOnUse" x="123" y="0" width="47" height="45" fill="black">
<rect fill="white" x="123" width="47" height="45"/>
<path d="M133.686 44.0977C132.004 44.0977 131.164 43.2381 131.164 41.5187C131.164 40.4107 131.412 39.1499 131.909 37.7362C132.444 36.3225 133.055 34.928 133.743 33.5525C134.469 32.1389 135.08 30.9735 135.577 30.0566C134.851 29.7891 134.182 29.3879 133.571 28.853C132.96 28.3181 132.654 27.6304 132.654 26.7899C132.654 25.6818 133.036 24.6503 133.8 23.6951C134.564 22.7399 135.519 21.8802 136.666 21.1161C137.812 20.3519 138.977 19.7024 140.162 19.1675C141.384 18.5944 142.435 18.1359 143.314 17.7921C144.536 15.9963 145.778 14.2006 147.039 12.4048C148.3 10.6091 149.618 8.85158 150.993 7.13225C150.955 6.82659 151.07 6.46363 151.337 6.04335C151.605 5.62307 151.91 5.22189 152.254 4.83982C152.636 4.41954 152.904 4.09478 153.057 3.86554C152.713 3.82733 152.369 3.80823 152.025 3.80823C151.681 3.80823 151.318 3.80823 150.936 3.80823C148.376 3.80823 145.778 4.05657 143.142 4.55327C140.544 5.01175 138.041 5.68038 135.634 6.55915C134.908 6.82659 134.087 7.17046 133.17 7.59074C132.253 8.01102 131.374 8.52682 130.533 9.13813C129.693 9.74945 128.986 10.4372 128.413 11.2013C127.878 11.9655 127.611 12.806 127.611 13.723C127.611 14.6782 127.897 15.4996 128.47 16.1874C129.043 16.8751 129.75 17.4482 130.591 17.9067C131.431 18.3652 132.215 18.7472 132.94 19.0529C133.017 19.0911 133.112 19.1484 133.227 19.2248C133.38 19.263 133.456 19.3395 133.456 19.4541C133.456 19.5687 133.323 19.6451 133.055 19.6833C132.788 19.7215 132.616 19.7406 132.539 19.7406C132.348 19.7406 132.215 19.7215 132.138 19.6833C131.45 19.4923 130.648 19.2248 129.731 18.881C128.814 18.4989 127.916 18.0404 127.037 17.5055C126.159 16.9706 125.433 16.3593 124.86 15.6716C124.287 14.9456 124 14.1433 124 13.2645C124 12.3093 124.325 11.4306 124.974 10.6282C125.662 9.82586 126.503 9.09992 127.496 8.4504C128.489 7.80088 129.502 7.26598 130.533 6.8457C131.565 6.38721 132.444 6.02424 133.17 5.7568C135.806 4.83982 138.5 4.13299 141.251 3.6363C144.04 3.10139 146.829 2.83394 149.618 2.83394C150.306 2.83394 150.993 2.85305 151.681 2.89126C152.369 2.92946 153.037 2.98677 153.687 3.06319C153.84 2.87215 153.974 2.68111 154.088 2.49008C154.241 2.26084 154.394 2.0698 154.547 1.91697C154.852 1.61131 155.33 1.38207 155.979 1.22924C156.629 1.07641 157.145 1 157.527 1C157.68 1 157.909 1.03821 158.215 1.11462C158.558 1.15283 158.73 1.28655 158.73 1.5158C158.73 1.59221 158.616 1.78325 158.386 2.0889C158.157 2.39456 157.909 2.70022 157.641 3.00588C157.374 3.27333 157.183 3.46436 157.068 3.57898C158.291 3.80823 159.609 4.1712 161.023 4.66789C162.436 5.16458 163.774 5.8141 165.035 6.61646C166.334 7.3806 167.384 8.33578 168.187 9.48199C168.989 10.6282 169.39 11.9464 169.39 13.4364C169.39 15.0411 168.913 16.5694 167.957 18.0213C167.04 19.435 165.913 20.734 164.576 21.9184C163.239 23.0647 161.959 24.058 160.736 24.8986C159.055 26.0066 157.107 27.0191 154.891 27.9361C152.713 28.853 150.478 29.5981 148.185 30.1712C145.893 30.7061 143.734 30.9735 141.709 30.9735C141.098 30.9735 140.506 30.9544 139.932 30.9162C139.359 30.8398 138.786 30.7634 138.213 30.687C137.793 31.5658 137.296 32.6547 136.723 33.9537C136.188 35.2527 135.711 36.5518 135.29 37.8508C134.908 39.1881 134.717 40.3534 134.717 41.3468C134.717 41.6907 134.774 42.0536 134.889 42.4357C135.004 42.8178 135.271 43.0088 135.691 43.0088C135.997 43.0088 136.322 42.9515 136.666 42.8369C137.01 42.7605 137.334 42.7223 137.64 42.7223C137.678 42.7223 137.755 42.7223 137.869 42.7223C137.984 42.7223 138.041 42.7605 138.041 42.8369C138.041 42.9897 137.716 43.1616 137.067 43.3527C136.456 43.5819 135.787 43.7538 135.061 43.8685C134.373 44.0213 133.915 44.0977 133.686 44.0977ZM141.537 30.1712C142.836 30.1712 144.345 29.9419 146.065 29.4835C147.822 28.9868 149.675 28.3181 151.624 27.4776C153.572 26.5988 155.464 25.5863 157.298 24.4401C159.17 23.2939 160.851 22.0522 162.341 20.7149C163.869 19.3777 165.073 17.9831 165.951 16.5312C166.868 15.0793 167.327 13.6466 167.327 12.2329C167.327 10.9339 166.964 9.82586 166.238 8.90889C165.512 7.95371 164.576 7.17046 163.43 6.55915C162.322 5.90962 161.137 5.39383 159.877 5.01175C158.654 4.62968 157.527 4.36223 156.495 4.2094C153.018 8.25936 149.771 12.4239 146.752 16.7032C147.134 16.5885 147.669 16.4357 148.357 16.2447C149.083 16.0536 149.809 15.8817 150.535 15.7289C151.261 15.5378 151.796 15.4423 152.14 15.4423C152.292 15.4423 152.369 15.4805 152.369 15.5569C152.369 15.7098 152.292 15.8435 152.14 15.9581C151.987 16.0345 151.872 16.0918 151.796 16.13C151.49 16.2065 151.165 16.2829 150.821 16.3593C150.478 16.4357 150.153 16.5121 149.847 16.5885C149.198 16.7414 148.548 16.9133 147.899 17.1043C147.287 17.2954 146.676 17.4864 146.065 17.6774C144.689 19.626 143.371 21.6128 142.11 23.6378C140.888 25.6245 139.722 27.6877 138.614 29.8273C139.608 30.0566 140.582 30.1712 141.537 30.1712ZM136.265 28.853C137.258 27.1719 138.251 25.529 139.245 23.9243C140.276 22.3196 141.327 20.734 142.397 19.1675C141.785 19.435 141.06 19.8361 140.219 20.371C139.378 20.8677 138.538 21.4408 137.697 22.0904C136.895 22.7399 136.207 23.4467 135.634 24.2109C135.099 24.9368 134.832 25.6818 134.832 26.446C134.832 26.9427 134.965 27.4012 135.233 27.8214C135.539 28.2035 135.882 28.5474 136.265 28.853Z"/>
</mask>
<path d="M133.686 44.0977C132.004 44.0977 131.164 43.2381 131.164 41.5187C131.164 40.4107 131.412 39.1499 131.909 37.7362C132.444 36.3225 133.055 34.928 133.743 33.5525C134.469 32.1389 135.08 30.9735 135.577 30.0566C134.851 29.7891 134.182 29.3879 133.571 28.853C132.96 28.3181 132.654 27.6304 132.654 26.7899C132.654 25.6818 133.036 24.6503 133.8 23.6951C134.564 22.7399 135.519 21.8802 136.666 21.1161C137.812 20.3519 138.977 19.7024 140.162 19.1675C141.384 18.5944 142.435 18.1359 143.314 17.7921C144.536 15.9963 145.778 14.2006 147.039 12.4048C148.3 10.6091 149.618 8.85158 150.993 7.13225C150.955 6.82659 151.07 6.46363 151.337 6.04335C151.605 5.62307 151.91 5.22189 152.254 4.83982C152.636 4.41954 152.904 4.09478 153.057 3.86554C152.713 3.82733 152.369 3.80823 152.025 3.80823C151.681 3.80823 151.318 3.80823 150.936 3.80823C148.376 3.80823 145.778 4.05657 143.142 4.55327C140.544 5.01175 138.041 5.68038 135.634 6.55915C134.908 6.82659 134.087 7.17046 133.17 7.59074C132.253 8.01102 131.374 8.52682 130.533 9.13813C129.693 9.74945 128.986 10.4372 128.413 11.2013C127.878 11.9655 127.611 12.806 127.611 13.723C127.611 14.6782 127.897 15.4996 128.47 16.1874C129.043 16.8751 129.75 17.4482 130.591 17.9067C131.431 18.3652 132.215 18.7472 132.94 19.0529C133.017 19.0911 133.112 19.1484 133.227 19.2248C133.38 19.263 133.456 19.3395 133.456 19.4541C133.456 19.5687 133.323 19.6451 133.055 19.6833C132.788 19.7215 132.616 19.7406 132.539 19.7406C132.348 19.7406 132.215 19.7215 132.138 19.6833C131.45 19.4923 130.648 19.2248 129.731 18.881C128.814 18.4989 127.916 18.0404 127.037 17.5055C126.159 16.9706 125.433 16.3593 124.86 15.6716C124.287 14.9456 124 14.1433 124 13.2645C124 12.3093 124.325 11.4306 124.974 10.6282C125.662 9.82586 126.503 9.09992 127.496 8.4504C128.489 7.80088 129.502 7.26598 130.533 6.8457C131.565 6.38721 132.444 6.02424 133.17 5.7568C135.806 4.83982 138.5 4.13299 141.251 3.6363C144.04 3.10139 146.829 2.83394 149.618 2.83394C150.306 2.83394 150.993 2.85305 151.681 2.89126C152.369 2.92946 153.037 2.98677 153.687 3.06319C153.84 2.87215 153.974 2.68111 154.088 2.49008C154.241 2.26084 154.394 2.0698 154.547 1.91697C154.852 1.61131 155.33 1.38207 155.979 1.22924C156.629 1.07641 157.145 1 157.527 1C157.68 1 157.909 1.03821 158.215 1.11462C158.558 1.15283 158.73 1.28655 158.73 1.5158C158.73 1.59221 158.616 1.78325 158.386 2.0889C158.157 2.39456 157.909 2.70022 157.641 3.00588C157.374 3.27333 157.183 3.46436 157.068 3.57898C158.291 3.80823 159.609 4.1712 161.023 4.66789C162.436 5.16458 163.774 5.8141 165.035 6.61646C166.334 7.3806 167.384 8.33578 168.187 9.48199C168.989 10.6282 169.39 11.9464 169.39 13.4364C169.39 15.0411 168.913 16.5694 167.957 18.0213C167.04 19.435 165.913 20.734 164.576 21.9184C163.239 23.0647 161.959 24.058 160.736 24.8986C159.055 26.0066 157.107 27.0191 154.891 27.9361C152.713 28.853 150.478 29.5981 148.185 30.1712C145.893 30.7061 143.734 30.9735 141.709 30.9735C141.098 30.9735 140.506 30.9544 139.932 30.9162C139.359 30.8398 138.786 30.7634 138.213 30.687C137.793 31.5658 137.296 32.6547 136.723 33.9537C136.188 35.2527 135.711 36.5518 135.29 37.8508C134.908 39.1881 134.717 40.3534 134.717 41.3468C134.717 41.6907 134.774 42.0536 134.889 42.4357C135.004 42.8178 135.271 43.0088 135.691 43.0088C135.997 43.0088 136.322 42.9515 136.666 42.8369C137.01 42.7605 137.334 42.7223 137.64 42.7223C137.678 42.7223 137.755 42.7223 137.869 42.7223C137.984 42.7223 138.041 42.7605 138.041 42.8369C138.041 42.9897 137.716 43.1616 137.067 43.3527C136.456 43.5819 135.787 43.7538 135.061 43.8685C134.373 44.0213 133.915 44.0977 133.686 44.0977ZM141.537 30.1712C142.836 30.1712 144.345 29.9419 146.065 29.4835C147.822 28.9868 149.675 28.3181 151.624 27.4776C153.572 26.5988 155.464 25.5863 157.298 24.4401C159.17 23.2939 160.851 22.0522 162.341 20.7149C163.869 19.3777 165.073 17.9831 165.951 16.5312C166.868 15.0793 167.327 13.6466 167.327 12.2329C167.327 10.9339 166.964 9.82586 166.238 8.90889C165.512 7.95371 164.576 7.17046 163.43 6.55915C162.322 5.90962 161.137 5.39383 159.877 5.01175C158.654 4.62968 157.527 4.36223 156.495 4.2094C153.018 8.25936 149.771 12.4239 146.752 16.7032C147.134 16.5885 147.669 16.4357 148.357 16.2447C149.083 16.0536 149.809 15.8817 150.535 15.7289C151.261 15.5378 151.796 15.4423 152.14 15.4423C152.292 15.4423 152.369 15.4805 152.369 15.5569C152.369 15.7098 152.292 15.8435 152.14 15.9581C151.987 16.0345 151.872 16.0918 151.796 16.13C151.49 16.2065 151.165 16.2829 150.821 16.3593C150.478 16.4357 150.153 16.5121 149.847 16.5885C149.198 16.7414 148.548 16.9133 147.899 17.1043C147.287 17.2954 146.676 17.4864 146.065 17.6774C144.689 19.626 143.371 21.6128 142.11 23.6378C140.888 25.6245 139.722 27.6877 138.614 29.8273C139.608 30.0566 140.582 30.1712 141.537 30.1712ZM136.265 28.853C137.258 27.1719 138.251 25.529 139.245 23.9243C140.276 22.3196 141.327 20.734 142.397 19.1675C141.785 19.435 141.06 19.8361 140.219 20.371C139.378 20.8677 138.538 21.4408 137.697 22.0904C136.895 22.7399 136.207 23.4467 135.634 24.2109C135.099 24.9368 134.832 25.6818 134.832 26.446C134.832 26.9427 134.965 27.4012 135.233 27.8214C135.539 28.2035 135.882 28.5474 136.265 28.853Z" fill="black"/>
<path d="M133.686 44.0977C132.004 44.0977 131.164 43.2381 131.164 41.5187C131.164 40.4107 131.412 39.1499 131.909 37.7362C132.444 36.3225 133.055 34.928 133.743 33.5525C134.469 32.1389 135.08 30.9735 135.577 30.0566C134.851 29.7891 134.182 29.3879 133.571 28.853C132.96 28.3181 132.654 27.6304 132.654 26.7899C132.654 25.6818 133.036 24.6503 133.8 23.6951C134.564 22.7399 135.519 21.8802 136.666 21.1161C137.812 20.3519 138.977 19.7024 140.162 19.1675C141.384 18.5944 142.435 18.1359 143.314 17.7921C144.536 15.9963 145.778 14.2006 147.039 12.4048C148.3 10.6091 149.618 8.85158 150.993 7.13225C150.955 6.82659 151.07 6.46363 151.337 6.04335C151.605 5.62307 151.91 5.22189 152.254 4.83982C152.636 4.41954 152.904 4.09478 153.057 3.86554C152.713 3.82733 152.369 3.80823 152.025 3.80823C151.681 3.80823 151.318 3.80823 150.936 3.80823C148.376 3.80823 145.778 4.05657 143.142 4.55327C140.544 5.01175 138.041 5.68038 135.634 6.55915C134.908 6.82659 134.087 7.17046 133.17 7.59074C132.253 8.01102 131.374 8.52682 130.533 9.13813C129.693 9.74945 128.986 10.4372 128.413 11.2013C127.878 11.9655 127.611 12.806 127.611 13.723C127.611 14.6782 127.897 15.4996 128.47 16.1874C129.043 16.8751 129.75 17.4482 130.591 17.9067C131.431 18.3652 132.215 18.7472 132.94 19.0529C133.017 19.0911 133.112 19.1484 133.227 19.2248C133.38 19.263 133.456 19.3395 133.456 19.4541C133.456 19.5687 133.323 19.6451 133.055 19.6833C132.788 19.7215 132.616 19.7406 132.539 19.7406C132.348 19.7406 132.215 19.7215 132.138 19.6833C131.45 19.4923 130.648 19.2248 129.731 18.881C128.814 18.4989 127.916 18.0404 127.037 17.5055C126.159 16.9706 125.433 16.3593 124.86 15.6716C124.287 14.9456 124 14.1433 124 13.2645C124 12.3093 124.325 11.4306 124.974 10.6282C125.662 9.82586 126.503 9.09992 127.496 8.4504C128.489 7.80088 129.502 7.26598 130.533 6.8457C131.565 6.38721 132.444 6.02424 133.17 5.7568C135.806 4.83982 138.5 4.13299 141.251 3.6363C144.04 3.10139 146.829 2.83394 149.618 2.83394C150.306 2.83394 150.993 2.85305 151.681 2.89126C152.369 2.92946 153.037 2.98677 153.687 3.06319C153.84 2.87215 153.974 2.68111 154.088 2.49008C154.241 2.26084 154.394 2.0698 154.547 1.91697C154.852 1.61131 155.33 1.38207 155.979 1.22924C156.629 1.07641 157.145 1 157.527 1C157.68 1 157.909 1.03821 158.215 1.11462C158.558 1.15283 158.73 1.28655 158.73 1.5158C158.73 1.59221 158.616 1.78325 158.386 2.0889C158.157 2.39456 157.909 2.70022 157.641 3.00588C157.374 3.27333 157.183 3.46436 157.068 3.57898C158.291 3.80823 159.609 4.1712 161.023 4.66789C162.436 5.16458 163.774 5.8141 165.035 6.61646C166.334 7.3806 167.384 8.33578 168.187 9.48199C168.989 10.6282 169.39 11.9464 169.39 13.4364C169.39 15.0411 168.913 16.5694 167.957 18.0213C167.04 19.435 165.913 20.734 164.576 21.9184C163.239 23.0647 161.959 24.058 160.736 24.8986C159.055 26.0066 157.107 27.0191 154.891 27.9361C152.713 28.853 150.478 29.5981 148.185 30.1712C145.893 30.7061 143.734 30.9735 141.709 30.9735C141.098 30.9735 140.506 30.9544 139.932 30.9162C139.359 30.8398 138.786 30.7634 138.213 30.687C137.793 31.5658 137.296 32.6547 136.723 33.9537C136.188 35.2527 135.711 36.5518 135.29 37.8508C134.908 39.1881 134.717 40.3534 134.717 41.3468C134.717 41.6907 134.774 42.0536 134.889 42.4357C135.004 42.8178 135.271 43.0088 135.691 43.0088C135.997 43.0088 136.322 42.9515 136.666 42.8369C137.01 42.7605 137.334 42.7223 137.64 42.7223C137.678 42.7223 137.755 42.7223 137.869 42.7223C137.984 42.7223 138.041 42.7605 138.041 42.8369C138.041 42.9897 137.716 43.1616 137.067 43.3527C136.456 43.5819 135.787 43.7538 135.061 43.8685C134.373 44.0213 133.915 44.0977 133.686 44.0977ZM141.537 30.1712C142.836 30.1712 144.345 29.9419 146.065 29.4835C147.822 28.9868 149.675 28.3181 151.624 27.4776C153.572 26.5988 155.464 25.5863 157.298 24.4401C159.17 23.2939 160.851 22.0522 162.341 20.7149C163.869 19.3777 165.073 17.9831 165.951 16.5312C166.868 15.0793 167.327 13.6466 167.327 12.2329C167.327 10.9339 166.964 9.82586 166.238 8.90889C165.512 7.95371 164.576 7.17046 163.43 6.55915C162.322 5.90962 161.137 5.39383 159.877 5.01175C158.654 4.62968 157.527 4.36223 156.495 4.2094C153.018 8.25936 149.771 12.4239 146.752 16.7032C147.134 16.5885 147.669 16.4357 148.357 16.2447C149.083 16.0536 149.809 15.8817 150.535 15.7289C151.261 15.5378 151.796 15.4423 152.14 15.4423C152.292 15.4423 152.369 15.4805 152.369 15.5569C152.369 15.7098 152.292 15.8435 152.14 15.9581C151.987 16.0345 151.872 16.0918 151.796 16.13C151.49 16.2065 151.165 16.2829 150.821 16.3593C150.478 16.4357 150.153 16.5121 149.847 16.5885C149.198 16.7414 148.548 16.9133 147.899 17.1043C147.287 17.2954 146.676 17.4864 146.065 17.6774C144.689 19.626 143.371 21.6128 142.11 23.6378C140.888 25.6245 139.722 27.6877 138.614 29.8273C139.608 30.0566 140.582 30.1712 141.537 30.1712ZM136.265 28.853C137.258 27.1719 138.251 25.529 139.245 23.9243C140.276 22.3196 141.327 20.734 142.397 19.1675C141.785 19.435 141.06 19.8361 140.219 20.371C139.378 20.8677 138.538 21.4408 137.697 22.0904C136.895 22.7399 136.207 23.4467 135.634 24.2109C135.099 24.9368 134.832 25.6818 134.832 26.446C134.832 26.9427 134.965 27.4012 135.233 27.8214C135.539 28.2035 135.882 28.5474 136.265 28.853Z" stroke="black" mask="url(#path-1-outside-1_70_3)"/>
<path d="M5.832 28.418C6.828 28.418 7.614 28.532 8.19 28.76C8.778 28.988 9.198 29.384 9.45 29.948C9.702 30.5 9.828 31.286 9.828 32.306C9.828 33.326 9.702 34.118 9.45 34.682C9.21 35.246 8.808 35.642 8.244 35.87C7.692 36.086 6.948 36.194 6.012 36.194C5.508 36.194 5.022 36.182 4.554 36.158C4.098 36.134 3.678 36.104 3.294 36.068C2.91 36.02 2.58 35.972 2.304 35.924C2.04 35.876 1.854 35.834 1.746 35.798L1.8 34.826C2.436 34.826 3.096 34.826 3.78 34.826C4.464 34.826 5.142 34.826 5.814 34.826C6.414 34.814 6.888 34.742 7.236 34.61C7.596 34.466 7.848 34.214 7.992 33.854C8.148 33.482 8.226 32.966 8.226 32.306C8.226 31.634 8.148 31.118 7.992 30.758C7.848 30.398 7.596 30.146 7.236 30.002C6.888 29.858 6.414 29.786 5.814 29.786C4.83 29.786 3.978 29.792 3.258 29.804C2.55 29.816 2.07 29.834 1.818 29.858L1.566 28.58C2.022 28.532 2.448 28.496 2.844 28.472C3.24 28.448 3.672 28.436 4.14 28.436C4.608 28.424 5.172 28.418 5.832 28.418ZM3.15 28.58V41H1.566V28.58H3.15ZM16.4672 28.418C17.4272 28.418 18.2012 28.526 18.7892 28.742C19.3772 28.946 19.8032 29.306 20.0672 29.822C20.3432 30.338 20.4812 31.064 20.4812 32C20.4812 32.672 20.4032 33.236 20.2472 33.692C20.0912 34.136 19.8452 34.484 19.5092 34.736C19.1852 34.976 18.7472 35.132 18.1952 35.204V35.294C18.3992 35.342 18.5972 35.444 18.7892 35.6C18.9932 35.744 19.1792 35.942 19.3472 36.194C19.5152 36.434 19.6412 36.728 19.7252 37.076L20.9312 41H19.2392L18.1412 37.112C17.9852 36.644 17.7752 36.314 17.5112 36.122C17.2472 35.918 16.9052 35.816 16.4852 35.816C15.7532 35.816 15.1172 35.816 14.5772 35.816C14.0372 35.804 13.5872 35.792 13.2272 35.78C12.8672 35.768 12.5792 35.762 12.3632 35.762L12.4172 34.448H16.4312C17.0432 34.436 17.5232 34.364 17.8712 34.232C18.2312 34.1 18.4892 33.866 18.6452 33.53C18.8012 33.182 18.8792 32.702 18.8792 32.09C18.8792 31.478 18.8012 31.01 18.6452 30.686C18.4892 30.35 18.2312 30.116 17.8712 29.984C17.5232 29.852 17.0432 29.786 16.4312 29.786C15.4472 29.786 14.5952 29.792 13.8752 29.804C13.1672 29.816 12.6872 29.822 12.4352 29.822L12.1832 28.58C12.6392 28.532 13.0652 28.496 13.4612 28.472C13.8572 28.448 14.2892 28.436 14.7572 28.436C15.2372 28.424 15.8072 28.418 16.4672 28.418ZM13.7492 28.58V41H12.1832V28.58H13.7492ZM27.7561 28.346C28.6561 28.346 29.4181 28.454 30.0421 28.67C30.6781 28.886 31.1821 29.246 31.5541 29.75C31.9381 30.242 32.2141 30.902 32.3821 31.73C32.5621 32.558 32.6521 33.578 32.6521 34.79C32.6521 36.002 32.5621 37.022 32.3821 37.85C32.2141 38.678 31.9381 39.344 31.5541 39.848C31.1821 40.34 30.6781 40.694 30.0421 40.91C29.4181 41.126 28.6561 41.234 27.7561 41.234C26.8561 41.234 26.0881 41.126 25.4521 40.91C24.8281 40.694 24.3241 40.34 23.9401 39.848C23.5561 39.344 23.2741 38.678 23.0941 37.85C22.9261 37.022 22.8421 36.002 22.8421 34.79C22.8421 33.578 22.9261 32.558 23.0941 31.73C23.2741 30.902 23.5561 30.242 23.9401 29.75C24.3241 29.246 24.8281 28.886 25.4521 28.67C26.0881 28.454 26.8561 28.346 27.7561 28.346ZM27.7561 29.768C26.9401 29.768 26.2921 29.924 25.8121 30.236C25.3441 30.548 25.0081 31.07 24.8041 31.802C24.6121 32.522 24.5161 33.518 24.5161 34.79C24.5161 36.05 24.6121 37.046 24.8041 37.778C25.0081 38.51 25.3441 39.032 25.8121 39.344C26.2921 39.656 26.9401 39.812 27.7561 39.812C28.5721 39.812 29.2141 39.656 29.6821 39.344C30.1621 39.032 30.4981 38.51 30.6901 37.778C30.8941 37.046 30.9961 36.05 30.9961 34.79C30.9961 33.518 30.8941 32.522 30.6901 31.802C30.4981 31.07 30.1621 30.548 29.6821 30.236C29.2141 29.924 28.5721 29.768 27.7561 29.768ZM37.6916 28.562C38.2676 28.562 38.8496 28.568 39.4376 28.58C40.0256 28.58 40.6076 28.586 41.1836 28.598C41.7596 28.61 42.3116 28.64 42.8396 28.688L42.7496 29.912H38.0876C37.6676 29.912 37.3616 30.008 37.1696 30.2C36.9776 30.38 36.8816 30.68 36.8816 31.1V41H35.2976V30.794C35.2976 30.086 35.5136 29.54 35.9456 29.156C36.3776 28.76 36.9596 28.562 37.6916 28.562ZM35.6036 33.98H42.0656V35.258H35.6036V33.98ZM47.3227 28.562C47.9227 28.562 48.5227 28.562 49.1227 28.562C49.7347 28.562 50.3347 28.574 50.9227 28.598C51.5227 28.61 52.0987 28.634 52.6507 28.67L52.5787 29.912H47.5927C47.2207 29.912 46.9447 30.008 46.7647 30.2C46.5967 30.38 46.5127 30.68 46.5127 31.1V38.48C46.5127 38.9 46.5967 39.206 46.7647 39.398C46.9447 39.59 47.2207 39.686 47.5927 39.686H52.5787L52.6507 40.91C52.0987 40.946 51.5227 40.97 50.9227 40.982C50.3347 40.994 49.7347 41 49.1227 41C48.5227 41.012 47.9227 41.018 47.3227 41.018C46.5907 41.018 46.0087 40.826 45.5767 40.442C45.1567 40.046 44.9407 39.518 44.9287 38.858V30.722C44.9407 30.05 45.1567 29.522 45.5767 29.138C46.0087 28.754 46.5907 28.562 47.3227 28.562ZM45.2527 33.8H51.8767V35.078H45.2527V33.8ZM58.565 28.364C59.153 28.376 59.759 28.406 60.383 28.454C61.007 28.502 61.631 28.592 62.255 28.724L62.147 29.876C61.631 29.852 61.061 29.834 60.437 29.822C59.813 29.798 59.213 29.786 58.637 29.786C58.193 29.786 57.809 29.804 57.485 29.84C57.173 29.864 56.915 29.936 56.711 30.056C56.507 30.164 56.357 30.35 56.261 30.614C56.177 30.866 56.135 31.22 56.135 31.676C56.135 32.36 56.255 32.84 56.495 33.116C56.747 33.38 57.149 33.578 57.701 33.71L60.221 34.34C61.181 34.568 61.835 34.97 62.183 35.546C62.543 36.11 62.723 36.872 62.723 37.832C62.723 38.552 62.639 39.134 62.471 39.578C62.315 40.022 62.069 40.364 61.733 40.604C61.397 40.832 60.965 40.988 60.437 41.072C59.909 41.168 59.285 41.216 58.565 41.216C58.157 41.216 57.623 41.198 56.963 41.162C56.315 41.126 55.565 41.03 54.713 40.874L54.821 39.704C55.529 39.728 56.099 39.752 56.531 39.776C56.963 39.788 57.335 39.794 57.647 39.794C57.959 39.794 58.283 39.794 58.619 39.794C59.255 39.794 59.753 39.746 60.113 39.65C60.485 39.554 60.743 39.362 60.887 39.074C61.043 38.786 61.121 38.36 61.121 37.796C61.121 37.316 61.067 36.944 60.959 36.68C60.851 36.416 60.677 36.218 60.437 36.086C60.209 35.942 59.915 35.828 59.555 35.744L56.981 35.096C56.081 34.868 55.445 34.472 55.073 33.908C54.713 33.344 54.533 32.588 54.533 31.64C54.533 30.92 54.611 30.344 54.767 29.912C54.935 29.468 55.181 29.138 55.505 28.922C55.841 28.694 56.261 28.544 56.765 28.472C57.269 28.4 57.869 28.364 58.565 28.364ZM68.6548 28.364C69.2428 28.376 69.8488 28.406 70.4728 28.454C71.0968 28.502 71.7208 28.592 72.3448 28.724L72.2368 29.876C71.7208 29.852 71.1508 29.834 70.5268 29.822C69.9028 29.798 69.3028 29.786 68.7268 29.786C68.2828 29.786 67.8988 29.804 67.5748 29.84C67.2628 29.864 67.0048 29.936 66.8008 30.056C66.5968 30.164 66.4468 30.35 66.3508 30.614C66.2668 30.866 66.2248 31.22 66.2248 31.676C66.2248 32.36 66.3448 32.84 66.5848 33.116C66.8368 33.38 67.2388 33.578 67.7908 33.71L70.3108 34.34C71.2708 34.568 71.9248 34.97 72.2728 35.546C72.6328 36.11 72.8128 36.872 72.8128 37.832C72.8128 38.552 72.7288 39.134 72.5608 39.578C72.4048 40.022 72.1588 40.364 71.8228 40.604C71.4868 40.832 71.0548 40.988 70.5268 41.072C69.9988 41.168 69.3748 41.216 68.6548 41.216C68.2468 41.216 67.7128 41.198 67.0528 41.162C66.4048 41.126 65.6548 41.03 64.8028 40.874L64.9108 39.704C65.6188 39.728 66.1888 39.752 66.6208 39.776C67.0528 39.788 67.4248 39.794 67.7368 39.794C68.0488 39.794 68.3728 39.794 68.7088 39.794C69.3448 39.794 69.8428 39.746 70.2028 39.65C70.5748 39.554 70.8328 39.362 70.9768 39.074C71.1328 38.786 71.2108 38.36 71.2108 37.796C71.2108 37.316 71.1568 36.944 71.0488 36.68C70.9408 36.416 70.7668 36.218 70.5268 36.086C70.2988 35.942 70.0048 35.828 69.6448 35.744L67.0708 35.096C66.1708 34.868 65.5348 34.472 65.1628 33.908C64.8028 33.344 64.6228 32.588 64.6228 31.64C64.6228 30.92 64.7008 30.344 64.8568 29.912C65.0248 29.468 65.2708 29.138 65.5948 28.922C65.9308 28.694 66.3508 28.544 66.8548 28.472C67.3588 28.4 67.9588 28.364 68.6548 28.364ZM76.8727 28.58V41H75.2887V28.58H76.8727ZM84.4456 28.346C85.3456 28.346 86.1076 28.454 86.7316 28.67C87.3676 28.886 87.8716 29.246 88.2436 29.75C88.6276 30.242 88.9036 30.902 89.0716 31.73C89.2516 32.558 89.3416 33.578 89.3416 34.79C89.3416 36.002 89.2516 37.022 89.0716 37.85C88.9036 38.678 88.6276 39.344 88.2436 39.848C87.8716 40.34 87.3676 40.694 86.7316 40.91C86.1076 41.126 85.3456 41.234 84.4456 41.234C83.5456 41.234 82.7776 41.126 82.1416 40.91C81.5176 40.694 81.0136 40.34 80.6296 39.848C80.2456 39.344 79.9636 38.678 79.7836 37.85C79.6156 37.022 79.5316 36.002 79.5316 34.79C79.5316 33.578 79.6156 32.558 79.7836 31.73C79.9636 30.902 80.2456 30.242 80.6296 29.75C81.0136 29.246 81.5176 28.886 82.1416 28.67C82.7776 28.454 83.5456 28.346 84.4456 28.346ZM84.4456 29.768C83.6296 29.768 82.9816 29.924 82.5016 30.236C82.0336 30.548 81.6976 31.07 81.4936 31.802C81.3016 32.522 81.2056 33.518 81.2056 34.79C81.2056 36.05 81.3016 37.046 81.4936 37.778C81.6976 38.51 82.0336 39.032 82.5016 39.344C82.9816 39.656 83.6296 39.812 84.4456 39.812C85.2616 39.812 85.9036 39.656 86.3716 39.344C86.8516 39.032 87.1876 38.51 87.3796 37.778C87.5836 37.046 87.6856 36.05 87.6856 34.79C87.6856 33.518 87.5836 32.522 87.3796 31.802C87.1876 31.07 86.8516 30.548 86.3716 30.236C85.9036 29.924 85.2616 29.768 84.4456 29.768ZM101.581 28.58V40.37C101.581 40.79 101.377 41 100.969 41H99.421C99.241 41 99.097 40.958 98.989 40.874C98.881 40.79 98.791 40.664 98.719 40.496L94.525 31.694C94.417 31.454 94.291 31.184 94.147 30.884C94.003 30.584 93.895 30.308 93.823 30.056H93.535C93.559 30.32 93.577 30.59 93.589 30.866C93.601 31.142 93.607 31.418 93.607 31.694V41H92.023V29.21C92.023 28.79 92.233 28.58 92.653 28.58H94.147C94.327 28.58 94.471 28.622 94.579 28.706C94.687 28.79 94.777 28.916 94.849 29.084L98.917 37.67C99.049 37.922 99.187 38.21 99.331 38.534C99.487 38.846 99.631 39.158 99.763 39.47H100.069C100.057 39.146 100.045 38.828 100.033 38.516C100.021 38.204 100.015 37.892 100.015 37.58V28.58H101.581ZM109.574 28.58C109.718 28.58 109.844 28.622 109.952 28.706C110.06 28.778 110.132 28.88 110.168 29.012L114.164 41H112.526L109.304 30.812C109.256 30.644 109.202 30.476 109.142 30.308C109.094 30.128 109.046 29.96 108.998 29.804H108.494C108.446 29.96 108.398 30.128 108.35 30.308C108.302 30.476 108.248 30.644 108.188 30.812L104.966 41H103.328L107.324 29.012C107.36 28.88 107.432 28.778 107.54 28.706C107.648 28.622 107.774 28.58 107.918 28.58H109.574ZM111.878 35.744V37.112H105.578V35.744H111.878ZM117.442 28.58V38.48C117.442 38.888 117.538 39.188 117.73 39.38C117.934 39.572 118.24 39.668 118.648 39.668H123.13L123.202 40.892C122.422 40.952 121.624 40.988 120.808 41C120.004 41.012 119.2 41.018 118.396 41.018C117.484 41.018 116.836 40.796 116.452 40.352C116.068 39.908 115.876 39.35 115.876 38.678V28.58H117.442Z" fill="black"/>
<path d="M187.976 28.364C188.504 28.364 188.954 28.376 189.326 28.4C189.71 28.424 190.058 28.466 190.37 28.526C190.694 28.574 191.024 28.64 191.36 28.724L191.198 29.93C190.838 29.894 190.502 29.864 190.19 29.84C189.89 29.816 189.566 29.798 189.218 29.786C188.87 29.774 188.456 29.768 187.976 29.768C187.172 29.768 186.536 29.924 186.068 30.236C185.6 30.548 185.264 31.07 185.06 31.802C184.868 32.534 184.772 33.53 184.772 34.79C184.772 36.05 184.868 37.046 185.06 37.778C185.264 38.51 185.6 39.032 186.068 39.344C186.536 39.656 187.172 39.812 187.976 39.812C188.744 39.812 189.386 39.8 189.902 39.776C190.43 39.74 190.946 39.686 191.45 39.614L191.612 40.802C191.096 40.946 190.562 41.048 190.01 41.108C189.47 41.18 188.792 41.216 187.976 41.216C186.788 41.216 185.834 41.012 185.114 40.604C184.406 40.184 183.89 39.506 183.566 38.57C183.254 37.634 183.098 36.374 183.098 34.79C183.098 33.206 183.254 31.946 183.566 31.01C183.89 30.074 184.406 29.402 185.114 28.994C185.834 28.574 186.788 28.364 187.976 28.364ZM198.084 28.346C198.984 28.346 199.746 28.454 200.37 28.67C201.006 28.886 201.51 29.246 201.882 29.75C202.266 30.242 202.542 30.902 202.71 31.73C202.89 32.558 202.98 33.578 202.98 34.79C202.98 36.002 202.89 37.022 202.71 37.85C202.542 38.678 202.266 39.344 201.882 39.848C201.51 40.34 201.006 40.694 200.37 40.91C199.746 41.126 198.984 41.234 198.084 41.234C197.184 41.234 196.416 41.126 195.78 40.91C195.156 40.694 194.652 40.34 194.268 39.848C193.884 39.344 193.602 38.678 193.422 37.85C193.254 37.022 193.17 36.002 193.17 34.79C193.17 33.578 193.254 32.558 193.422 31.73C193.602 30.902 193.884 30.242 194.268 29.75C194.652 29.246 195.156 28.886 195.78 28.67C196.416 28.454 197.184 28.346 198.084 28.346ZM198.084 29.768C197.268 29.768 196.62 29.924 196.14 30.236C195.672 30.548 195.336 31.07 195.132 31.802C194.94 32.522 194.844 33.518 194.844 34.79C194.844 36.05 194.94 37.046 195.132 37.778C195.336 38.51 195.672 39.032 196.14 39.344C196.62 39.656 197.268 39.812 198.084 39.812C198.9 39.812 199.542 39.656 200.01 39.344C200.49 39.032 200.826 38.51 201.018 37.778C201.222 37.046 201.324 36.05 201.324 34.79C201.324 33.518 201.222 32.522 201.018 31.802C200.826 31.07 200.49 30.548 200.01 30.236C199.542 29.924 198.9 29.768 198.084 29.768ZM209.118 28.364C209.706 28.376 210.312 28.406 210.936 28.454C211.56 28.502 212.184 28.592 212.808 28.724L212.7 29.876C212.184 29.852 211.614 29.834 210.99 29.822C210.366 29.798 209.766 29.786 209.19 29.786C208.746 29.786 208.362 29.804 208.038 29.84C207.726 29.864 207.468 29.936 207.264 30.056C207.06 30.164 206.91 30.35 206.814 30.614C206.73 30.866 206.688 31.22 206.688 31.676C206.688 32.36 206.808 32.84 207.048 33.116C207.3 33.38 207.702 33.578 208.254 33.71L210.774 34.34C211.734 34.568 212.388 34.97 212.736 35.546C213.096 36.11 213.276 36.872 213.276 37.832C213.276 38.552 213.192 39.134 213.024 39.578C212.868 40.022 212.622 40.364 212.286 40.604C211.95 40.832 211.518 40.988 210.99 41.072C210.462 41.168 209.838 41.216 209.118 41.216C208.71 41.216 208.176 41.198 207.516 41.162C206.868 41.126 206.118 41.03 205.266 40.874L205.374 39.704C206.082 39.728 206.652 39.752 207.084 39.776C207.516 39.788 207.888 39.794 208.2 39.794C208.512 39.794 208.836 39.794 209.172 39.794C209.808 39.794 210.306 39.746 210.666 39.65C211.038 39.554 211.296 39.362 211.44 39.074C211.596 38.786 211.674 38.36 211.674 37.796C211.674 37.316 211.62 36.944 211.512 36.68C211.404 36.416 211.23 36.218 210.99 36.086C210.762 35.942 210.468 35.828 210.108 35.744L207.534 35.096C206.634 34.868 205.998 34.472 205.626 33.908C205.266 33.344 205.086 32.588 205.086 31.64C205.086 30.92 205.164 30.344 205.32 29.912C205.488 29.468 205.734 29.138 206.058 28.922C206.394 28.694 206.814 28.544 207.318 28.472C207.822 28.4 208.422 28.364 209.118 28.364ZM227.488 28.58C227.92 28.58 228.136 28.802 228.136 29.246L228.658 41H227.074L226.624 29.894H226.246L223.474 39.056C223.378 39.416 223.15 39.596 222.79 39.596H221.368C220.996 39.596 220.756 39.416 220.648 39.056L217.876 29.894H217.516L217.084 41H215.5L215.986 29.246C216.01 28.802 216.232 28.58 216.652 28.58H218.452C218.788 28.58 219.01 28.76 219.118 29.12L221.44 36.698C221.536 36.974 221.614 37.25 221.674 37.526C221.746 37.802 221.824 38.084 221.908 38.372H222.232C222.316 38.084 222.394 37.802 222.466 37.526C222.538 37.25 222.616 36.962 222.7 36.662L225.022 29.12C225.118 28.76 225.346 28.58 225.706 28.58H227.488ZM233.823 28.562C234.423 28.562 235.023 28.562 235.623 28.562C236.235 28.562 236.835 28.574 237.423 28.598C238.023 28.61 238.599 28.634 239.151 28.67L239.079 29.912H234.093C233.721 29.912 233.445 30.008 233.265 30.2C233.097 30.38 233.013 30.68 233.013 31.1V38.48C233.013 38.9 233.097 39.206 233.265 39.398C233.445 39.59 233.721 39.686 234.093 39.686H239.079L239.151 40.91C238.599 40.946 238.023 40.97 237.423 40.982C236.835 40.994 236.235 41 235.623 41C235.023 41.012 234.423 41.018 233.823 41.018C233.091 41.018 232.509 40.826 232.077 40.442C231.657 40.046 231.441 39.518 231.429 38.858V30.722C231.441 30.05 231.657 29.522 232.077 29.138C232.509 28.754 233.091 28.562 233.823 28.562ZM231.753 33.8H238.377V35.078H231.753V33.8ZM246.055 28.58V41H244.471V28.58H246.055ZM250.069 28.58V29.984H240.475V28.58H250.069ZM253.652 28.58V41H252.068V28.58H253.652ZM261.189 28.364C261.717 28.364 262.167 28.376 262.539 28.4C262.923 28.424 263.271 28.466 263.583 28.526C263.907 28.574 264.237 28.64 264.573 28.724L264.411 29.93C264.051 29.894 263.715 29.864 263.403 29.84C263.103 29.816 262.779 29.798 262.431 29.786C262.083 29.774 261.669 29.768 261.189 29.768C260.385 29.768 259.749 29.924 259.281 30.236C258.813 30.548 258.477 31.07 258.273 31.802C258.081 32.534 257.985 33.53 257.985 34.79C257.985 36.05 258.081 37.046 258.273 37.778C258.477 38.51 258.813 39.032 259.281 39.344C259.749 39.656 260.385 39.812 261.189 39.812C261.957 39.812 262.599 39.8 263.115 39.776C263.643 39.74 264.159 39.686 264.663 39.614L264.825 40.802C264.309 40.946 263.775 41.048 263.223 41.108C262.683 41.18 262.005 41.216 261.189 41.216C260.001 41.216 259.047 41.012 258.327 40.604C257.619 40.184 257.103 39.506 256.779 38.57C256.467 37.634 256.311 36.374 256.311 34.79C256.311 33.206 256.467 31.946 256.779 31.01C257.103 30.074 257.619 29.402 258.327 28.994C259.047 28.574 260.001 28.364 261.189 28.364ZM270.501 28.364C271.089 28.376 271.695 28.406 272.319 28.454C272.943 28.502 273.567 28.592 274.191 28.724L274.083 29.876C273.567 29.852 272.997 29.834 272.373 29.822C271.749 29.798 271.149 29.786 270.573 29.786C270.129 29.786 269.745 29.804 269.421 29.84C269.109 29.864 268.851 29.936 268.647 30.056C268.443 30.164 268.293 30.35 268.197 30.614C268.113 30.866 268.071 31.22 268.071 31.676C268.071 32.36 268.191 32.84 268.431 33.116C268.683 33.38 269.085 33.578 269.637 33.71L272.157 34.34C273.117 34.568 273.771 34.97 274.119 35.546C274.479 36.11 274.659 36.872 274.659 37.832C274.659 38.552 274.575 39.134 274.407 39.578C274.251 40.022 274.005 40.364 273.669 40.604C273.333 40.832 272.901 40.988 272.373 41.072C271.845 41.168 271.221 41.216 270.501 41.216C270.093 41.216 269.559 41.198 268.899 41.162C268.251 41.126 267.501 41.03 266.649 40.874L266.757 39.704C267.465 39.728 268.035 39.752 268.467 39.776C268.899 39.788 269.271 39.794 269.583 39.794C269.895 39.794 270.219 39.794 270.555 39.794C271.191 39.794 271.689 39.746 272.049 39.65C272.421 39.554 272.679 39.362 272.823 39.074C272.979 38.786 273.057 38.36 273.057 37.796C273.057 37.316 273.003 36.944 272.895 36.68C272.787 36.416 272.613 36.218 272.373 36.086C272.145 35.942 271.851 35.828 271.491 35.744L268.917 35.096C268.017 34.868 267.381 34.472 267.009 33.908C266.649 33.344 266.469 32.588 266.469 31.64C266.469 30.92 266.547 30.344 266.703 29.912C266.871 29.468 267.117 29.138 267.441 28.922C267.777 28.694 268.197 28.544 268.701 28.472C269.205 28.4 269.805 28.364 270.501 28.364Z" fill="black"/>
<path d="M146.85 64.2001C145.237 64.2001 143.568 64.0534 141.845 63.7601C140.158 63.4668 138.582 62.9534 137.115 62.2201C135.685 61.5234 134.512 60.5334 133.595 59.2501C132.715 57.9668 132.275 56.3351 132.275 54.3551C132.275 52.4851 132.66 50.6334 133.43 48.8001C134.2 46.9668 135.208 45.2251 136.455 43.5751C137.702 41.8884 139.058 40.3484 140.525 38.9551C142.028 37.5618 143.495 36.3518 144.925 35.3251C146.245 34.3718 147.62 33.5101 149.05 32.7401C150.517 31.9701 152.002 31.2918 153.505 30.7051C155.412 29.9718 157.337 29.4034 159.28 29.0001C161.223 28.5601 163.203 28.2668 165.22 28.1201C165.293 28.0834 165.385 28.0651 165.495 28.0651C165.605 28.0651 165.697 28.0651 165.77 28.0651C166.467 28.0651 167.273 28.1568 168.19 28.3401C169.107 28.4868 169.968 28.7618 170.775 29.1651C171.618 29.5318 172.242 30.0268 172.645 30.6501C172.865 30.3568 173.158 29.8984 173.525 29.2751C173.928 28.6518 174.13 28.1934 174.13 27.9001C174.13 27.7168 174.203 27.5151 174.35 27.2951C174.497 27.0751 174.662 26.9651 174.845 26.9651C175.028 26.9651 175.138 27.0568 175.175 27.2401C175.212 27.3868 175.23 27.5151 175.23 27.6251C175.23 27.8451 175.102 28.2484 174.845 28.8351C174.625 29.4218 174.368 30.0084 174.075 30.5951C173.782 31.1451 173.58 31.5484 173.47 31.8051C173.653 32.0618 173.855 32.4468 174.075 32.9601C174.295 33.4734 174.405 33.8768 174.405 34.1701C174.405 34.3901 174.35 34.6834 174.24 35.0501C174.13 35.3801 173.965 35.6001 173.745 35.7101C173.745 35.7101 173.635 35.4901 173.415 35.0501C173.195 34.5734 173.048 34.2801 172.975 34.1701C172.608 34.9034 172.187 35.8018 171.71 36.8651C171.27 37.9284 170.757 38.7718 170.17 39.3951C170.023 39.5418 169.84 39.6334 169.62 39.6701C169.437 39.7068 169.253 39.7251 169.07 39.7251C168.96 39.7251 168.703 39.7068 168.3 39.6701C167.933 39.5968 167.567 39.5051 167.2 39.3951C166.87 39.2851 166.705 39.1751 166.705 39.0651C166.705 38.7718 166.907 38.3318 167.31 37.7451C167.713 37.1584 168.208 36.5168 168.795 35.8201C169.382 35.1234 169.932 34.4634 170.445 33.8401C170.958 33.1801 171.325 32.6851 171.545 32.3551C170.885 31.1818 170.023 30.3751 168.96 29.9351C167.897 29.4584 166.723 29.2201 165.44 29.2201C165.33 29.2201 165.22 29.2201 165.11 29.2201C165 29.2201 164.89 29.2384 164.78 29.2751C161.223 29.4951 157.868 30.3018 154.715 31.6951C153.395 32.2818 152.112 32.9601 150.865 33.7301C149.655 34.4634 148.463 35.2701 147.29 36.1501C146.007 37.1768 144.705 38.3868 143.385 39.7801C142.065 41.1368 140.855 42.6218 139.755 44.2351C138.692 45.8484 137.83 47.5351 137.17 49.2951C136.51 51.0184 136.18 52.7418 136.18 54.4651C136.18 56.6284 136.712 58.3518 137.775 59.6351C138.875 60.9184 140.268 61.8351 141.955 62.3851C143.678 62.9351 145.475 63.2101 147.345 63.2101C150.132 63.2101 152.9 62.7884 155.65 61.9451C158.437 61.0651 161.113 59.9284 163.68 58.5351C166.283 57.1051 168.667 55.5834 170.83 53.9701C170.903 53.8968 170.995 53.8234 171.105 53.7501C171.252 53.6768 171.38 53.6401 171.49 53.6401C171.6 53.6401 171.655 53.6951 171.655 53.8051C171.655 54.1718 171.472 54.5018 171.105 54.7951C170.592 55.2718 170.023 55.7301 169.4 56.1701C168.813 56.5734 168.208 56.9768 167.585 57.3801C164.468 59.5068 161.187 61.1751 157.74 62.3851C154.293 63.5951 150.663 64.2001 146.85 64.2001Z" fill="black"/>
<path fill-rule="evenodd" clip-rule="evenodd" d="M141.761 64.253L141.759 64.2527C140.028 63.9515 138.405 63.4239 136.894 62.6684C135.391 61.9357 134.153 60.8917 133.188 59.5407L133.183 59.5329C132.232 58.1462 131.775 56.4086 131.775 54.3551C131.775 52.4145 132.175 50.4972 132.969 48.6065C133.755 46.734 134.784 44.9571 136.054 43.2758C137.317 41.5674 138.693 40.0061 140.181 38.5926L140.185 38.5883C141.701 37.1833 143.184 35.9598 144.633 34.9193C145.97 33.9534 147.364 33.0802 148.813 32.2999L148.818 32.2974C150.3 31.519 151.802 30.8329 153.323 30.2393L153.326 30.2384C155.255 29.4962 157.205 28.9204 159.174 28.5114C161.115 28.0722 163.092 27.7775 165.104 27.6273C165.234 27.5814 165.368 27.5651 165.495 27.5651H165.77C166.506 27.5651 167.344 27.6614 168.279 27.8479C169.236 28.0021 170.139 28.2898 170.987 28.7119C171.637 28.9963 172.184 29.3599 172.614 29.809C172.754 29.5897 172.914 29.3277 173.094 29.0216L173.099 29.0124L173.105 29.0035C173.299 28.7046 173.435 28.4586 173.521 28.2625C173.611 28.0581 173.63 27.9449 173.63 27.9001C173.63 27.5834 173.756 27.2853 173.934 27.0177C174.129 26.7248 174.428 26.4651 174.845 26.4651C175.02 26.4651 175.217 26.5101 175.385 26.6497C175.547 26.7849 175.627 26.9635 175.663 27.129C175.704 27.2982 175.73 27.4654 175.73 27.6251C175.73 27.8144 175.678 28.03 175.61 28.2442C175.54 28.4655 175.438 28.7262 175.308 29.0232C175.083 29.6228 174.821 30.2213 174.522 30.8187L174.516 30.8305C174.307 31.2226 174.149 31.5321 174.039 31.7629C174.201 32.0331 174.366 32.3695 174.535 32.7631C174.761 33.2926 174.905 33.7724 174.905 34.1701C174.905 34.4618 174.834 34.8095 174.719 35.1938L174.717 35.201L174.714 35.2082C174.58 35.6113 174.349 35.9671 173.969 36.1573L173.521 36.3809L173.298 35.9337L173.251 35.8399L173.25 35.8389L172.981 35.3001C172.732 35.8245 172.461 36.4121 172.169 37.0631C171.714 38.1612 171.173 39.0594 170.534 39.7378L170.529 39.7433L170.524 39.7486C170.3 39.9727 170.022 40.1084 169.711 40.1619C169.498 40.2039 169.284 40.2251 169.07 40.2251C168.933 40.2251 168.651 40.2041 168.255 40.168L168.228 40.1656L168.202 40.1604C167.82 40.0839 167.438 39.9884 167.056 39.874L167.049 39.8718L167.042 39.8694C166.861 39.8092 166.689 39.7376 166.551 39.6461C166.439 39.571 166.205 39.3855 166.205 39.0651C166.205 38.8145 166.288 38.5549 166.402 38.3068C166.519 38.0515 166.687 37.7689 166.898 37.4618C167.313 36.8587 167.818 36.2039 168.413 35.498C168.996 34.8046 169.544 34.1478 170.055 33.5277C170.441 33.0305 170.739 32.6336 170.952 32.3343C170.363 31.3894 169.633 30.7547 168.769 30.3971L168.762 30.3943L168.755 30.3913C167.763 29.9463 166.66 29.7201 165.44 29.7201H165.11C165.057 29.7201 165 29.7288 164.938 29.7494L164.876 29.7701L164.811 29.7741C161.311 29.9906 158.015 30.7837 154.918 32.1522C153.619 32.7295 152.355 33.3972 151.128 34.1555L151.124 34.1577C149.931 34.8809 148.755 35.6767 147.596 36.5454C146.335 37.5546 145.053 38.7468 143.748 40.124L143.743 40.1288C142.445 41.4632 141.254 42.9245 140.17 44.5135C139.128 46.0955 138.284 47.7478 137.638 49.4707L137.637 49.4739C136.997 51.1442 136.68 52.8071 136.68 54.4651C136.68 56.5453 137.19 58.1434 138.157 59.3129C139.194 60.521 140.507 61.3866 142.108 61.9092C143.781 62.4427 145.525 62.7101 147.345 62.7101C150.08 62.7101 152.798 62.2965 155.501 61.4676C158.257 60.5974 160.903 59.4736 163.441 58.0961C166.015 56.6822 168.369 55.1797 170.505 53.5891C170.6 53.4977 170.709 53.4131 170.828 53.3341L170.854 53.3168L170.881 53.3029C171.066 53.2105 171.274 53.1401 171.49 53.1401C171.622 53.1401 171.813 53.1734 171.967 53.3278C172.122 53.4821 172.155 53.673 172.155 53.8051C172.155 54.3584 171.873 54.816 171.432 55.1735C170.905 55.6623 170.323 56.1305 169.688 56.5786L169.683 56.5821C169.094 56.9871 168.487 57.3919 167.862 57.7965C164.712 59.9453 161.393 61.6326 157.906 62.8569C154.403 64.0864 150.717 64.7001 146.85 64.7001C145.206 64.7001 143.51 64.5507 141.761 64.253ZM167.585 57.3801C168.208 56.9768 168.813 56.5734 169.4 56.1701C170.023 55.7301 170.592 55.2718 171.105 54.7951C171.472 54.5018 171.655 54.1718 171.655 53.8051C171.655 53.6951 171.6 53.6401 171.49 53.6401C171.38 53.6401 171.252 53.6768 171.105 53.7501C170.995 53.8234 170.903 53.8968 170.83 53.9701C168.667 55.5834 166.283 57.1051 163.68 58.5351C161.113 59.9284 158.437 61.0651 155.65 61.9451C152.9 62.7884 150.132 63.2101 147.345 63.2101C145.475 63.2101 143.678 62.9351 141.955 62.3851C140.268 61.8351 138.875 60.9184 137.775 59.6351C136.712 58.3518 136.18 56.6284 136.18 54.4651C136.18 52.7418 136.51 51.0184 137.17 49.2951C137.83 47.5351 138.692 45.8484 139.755 44.2351C140.855 42.6218 142.065 41.1368 143.385 39.7801C144.705 38.3868 146.007 37.1768 147.29 36.1501C148.463 35.2701 149.655 34.4634 150.865 33.7301C152.112 32.9601 153.395 32.2818 154.715 31.6951C157.868 30.3018 161.223 29.4951 164.78 29.2751C164.89 29.2384 165 29.2201 165.11 29.2201H165.44C166.723 29.2201 167.897 29.4584 168.96 29.9351C170.023 30.3751 170.885 31.1818 171.545 32.3551C171.325 32.6851 170.958 33.1801 170.445 33.8401C169.932 34.4634 169.382 35.1234 168.795 35.8201C168.208 36.5168 167.713 37.1584 167.31 37.7451C166.907 38.3318 166.705 38.7718 166.705 39.0651C166.705 39.1751 166.87 39.2851 167.2 39.3951C167.567 39.5051 167.933 39.5968 168.3 39.6701C168.703 39.7068 168.96 39.7251 169.07 39.7251C169.253 39.7251 169.437 39.7068 169.62 39.6701C169.84 39.6334 170.023 39.5418 170.17 39.3951C170.757 38.7718 171.27 37.9284 171.71 36.8651C172.074 36.0541 172.405 35.3391 172.705 34.7201C172.798 34.5274 172.888 34.3441 172.975 34.1701C173.03 34.252 173.125 34.4354 173.261 34.7204C173.307 34.8183 173.359 34.9282 173.415 35.0501L173.745 35.7101C173.894 35.6356 174.018 35.5105 174.116 35.335C174.163 35.2514 174.205 35.1565 174.24 35.0501C174.35 34.6834 174.405 34.3901 174.405 34.1701C174.405 33.8768 174.295 33.4734 174.075 32.9601C173.855 32.4468 173.653 32.0618 173.47 31.8051C173.58 31.5484 173.782 31.1451 174.075 30.5951C174.368 30.0084 174.625 29.4218 174.845 28.8351C175.102 28.2484 175.23 27.8451 175.23 27.6251C175.23 27.5151 175.212 27.3868 175.175 27.2401C175.138 27.0568 175.028 26.9651 174.845 26.9651C174.662 26.9651 174.497 27.0751 174.35 27.2951C174.203 27.5151 174.13 27.7168 174.13 27.9001C174.13 28.1934 173.928 28.6518 173.525 29.2751C173.307 29.6451 173.116 29.9569 172.95 30.2106C172.836 30.3844 172.734 30.5309 172.645 30.6501C172.551 30.5052 172.446 30.3672 172.328 30.2362C171.94 29.8035 171.422 29.4465 170.775 29.1651C169.968 28.7618 169.107 28.4868 168.19 28.3401C167.273 28.1568 166.467 28.0651 165.77 28.0651H165.495C165.385 28.0651 165.293 28.0834 165.22 28.1201C163.203 28.2668 161.223 28.5601 159.28 29.0001C157.337 29.4034 155.412 29.9718 153.505 30.7051C152.002 31.2918 150.517 31.9701 149.05 32.7401C147.62 33.5101 146.245 34.3718 144.925 35.3251C143.495 36.3518 142.028 37.5618 140.525 38.9551C139.058 40.3484 137.702 41.8884 136.455 43.5751C135.208 45.2251 134.2 46.9668 133.43 48.8001C132.66 50.6334 132.275 52.4851 132.275 54.3551C132.275 56.3351 132.715 57.9668 133.595 59.2501C134.512 60.5334 135.685 61.5234 137.115 62.2201C138.582 62.9534 140.158 63.4668 141.845 63.7601C143.568 64.0534 145.237 64.2001 146.85 64.2001C150.663 64.2001 154.293 63.5951 157.74 62.3851C161.187 61.1751 164.468 59.5068 167.585 57.3801Z" fill="black"/>
</svg>
