<svg width="25" height="25" viewBox="0 0 25 25" fill="none" xmlns="http://www.w3.org/2000/svg">
<g clip-path="url(#clip0_31_507)">
<path d="M10.085 0C4.73848 0 0.403442 4.33508 0.403442 9.68155C0.403442 15.0281 4.73848 19.3631 10.085 19.3631C12.1409 19.3631 14.0476 18.7218 15.6148 17.6295L22.9364 24.9499C23.0024 25.016 23.1095 25.016 23.1721 24.9544L24.5515 23.5751C24.6153 23.5113 24.6096 23.402 24.5469 23.3393L17.321 16.1134C18.8428 14.4038 19.7665 12.1509 19.7665 9.68151C19.7665 4.33508 15.4315 0 10.085 0ZM10.085 18.2241C5.36724 18.2241 1.54244 14.3993 1.54244 9.68155C1.54244 4.9638 5.3672 1.13904 10.085 1.13904C14.8028 1.13904 18.6275 4.9638 18.6275 9.68155C18.6275 14.3993 14.8027 18.2241 10.085 18.2241Z" fill="black"/>
</g>
<defs>
<clipPath id="clip0_31_507">
<rect width="25" height="25" fill="white"/>
</clipPath>
</defs>
</svg>
