<svg width="20" height="20" viewBox="0 0 20 20" fill="none" xmlns="http://www.w3.org/2000/svg">
<path d="M13.2598 16.0649C12.2206 17.0542 11.1125 18.1091 9.99725 19.2735C8.88395 18.1112 7.77812 17.058 6.74095 16.0702L6.67124 16.0038C5.49677 14.8852 4.41807 13.8546 3.49625 12.8275C1.6563 10.7775 0.5 8.80476 0.5 6.32309C0.5 3.63025 2.54454 1.50005 4.99863 1.50005C6.14721 1.50005 6.96433 1.80129 7.64219 2.37876C8.34028 2.97346 8.9284 3.89243 9.54468 5.20474L9.99734 6.16865L10.4499 5.20468C11.0659 3.89238 11.6539 2.97342 12.3519 2.37872C13.0297 1.80125 13.8469 1.5 14.9954 1.5C17.4558 1.5 19.5 3.6306 19.5 6.32304C19.5 8.80455 18.3424 10.7773 16.501 12.8274C15.5784 13.8545 14.499 14.885 13.324 16.0037L13.2598 16.0649Z" stroke="black"/>
</svg>
