<svg width="18" height="18" viewBox="0 0 18 18" fill="none" xmlns="http://www.w3.org/2000/svg">
<path fill-rule="evenodd" clip-rule="evenodd" d="M14.1428 5.96732C14.1428 2.95404 11.826 0.428467 8.78999 0.428467C5.75399 0.428467 3.42856 2.95575 3.42856 5.9699C3.42856 6.96418 3.56742 7.71418 4.03842 8.57132H4.02942L8.61299 17.4089C8.78527 17.645 8.96613 17.3952 8.96613 17.3952C8.81142 17.627 13.5497 8.57132 13.5497 8.57132H13.5458C14.0121 7.71418 14.1428 6.96247 14.1428 5.96732ZM6.32184 5.79761C6.32184 4.37604 7.42713 3.22447 8.78999 3.22447C10.1524 3.22447 11.2586 4.37604 11.2586 5.79761C11.2586 7.21918 10.1524 8.37118 8.78999 8.37118C7.42713 8.37118 6.32184 7.21961 6.32184 5.79761Z" fill="#5C5C5C"/>
</svg>
