<svg width="20" height="20" viewBox="0 0 20 20" fill="none" xmlns="http://www.w3.org/2000/svg">
<g clip-path="url(#clip0_57_556)">
<path d="M19.9571 15.4963C19.9005 15.3259 19.5406 15.0748 18.8776 14.7437C18.698 14.6393 18.4421 14.4974 18.1109 14.3175C17.7795 14.1375 17.4786 13.9717 17.2089 13.8202C16.9387 13.6687 16.6855 13.5219 16.4489 13.3801C16.4111 13.3517 16.2928 13.2689 16.0939 13.1313C15.8949 12.9941 15.727 12.8923 15.5894 12.8258C15.4522 12.7598 15.3171 12.7266 15.1846 12.7266C14.9952 12.7266 14.7587 12.8616 14.4747 13.1313C14.1907 13.4014 13.9302 13.6947 13.6936 14.0122C13.4569 14.3296 13.2059 14.6229 12.9411 14.8928C12.6758 15.1628 12.4578 15.2977 12.2876 15.2977C12.2021 15.2977 12.0955 15.2739 11.9678 15.2268C11.8402 15.1795 11.743 15.139 11.6764 15.1063C11.6103 15.0729 11.4969 15.0068 11.3358 14.9071C11.1744 14.8076 11.0847 14.7532 11.0658 14.7437C9.7685 14.0238 8.65591 13.1999 7.7278 12.2722C6.79998 11.3439 5.976 10.2314 5.25634 8.93402C5.24689 8.91507 5.19231 8.82507 5.09296 8.66417C4.99346 8.50313 4.92714 8.38964 4.894 8.32318C4.86087 8.25696 4.82062 8.15984 4.77336 8.03203C4.72609 7.90422 4.70236 7.79775 4.70236 7.71243C4.70236 7.54208 4.83734 7.32417 5.10724 7.05899C5.37709 6.79396 5.67072 6.54292 5.98784 6.30635C6.3052 6.06978 6.59854 5.80928 6.86849 5.5253C7.13834 5.24117 7.27327 5.00455 7.27327 4.8152C7.27327 4.68271 7.24013 4.54763 7.17391 4.41037C7.10765 4.27281 7.00585 4.10495 6.86849 3.90599C6.73108 3.70713 6.64824 3.58887 6.61978 3.55081C6.47789 3.31425 6.33127 3.06096 6.17958 2.79106C6.02789 2.52121 5.86232 2.22041 5.68231 1.88901C5.50246 1.55777 5.36052 1.302 5.25624 1.1221C4.925 0.459356 4.6741 0.0993537 4.5036 0.0427365C4.43728 0.0143284 4.33778 0 4.20534 0C3.94952 0 3.61579 0.0472639 3.20389 0.14209C2.79185 0.236767 2.46762 0.336071 2.23085 0.4404C1.75737 0.639157 1.25553 1.21677 0.725175 2.17305C0.242237 3.063 0.000793457 3.94385 0.000793457 4.81495C0.000793457 5.07042 0.0173607 5.31898 0.0504952 5.56067C0.0836297 5.80212 0.142834 6.07441 0.228158 6.37749C0.313332 6.68048 0.382039 6.90556 0.43398 7.05212C0.48597 7.19879 0.583035 7.46153 0.725125 7.84044C0.867017 8.21924 0.952341 8.45114 0.980749 8.53636C1.31214 9.46443 1.70513 10.2929 2.15961 11.0221C2.90738 12.2342 3.92783 13.4868 5.22037 14.7794C6.51297 16.072 7.76531 17.0924 8.97746 17.8404C9.70656 18.2949 10.5354 18.6878 11.4633 19.0194C11.5486 19.0477 11.7805 19.1328 12.1591 19.2752C12.5379 19.4172 12.8008 19.5143 12.9474 19.5664C13.0941 19.6185 13.3193 19.6873 13.622 19.7726C13.9254 19.8579 14.1974 19.9171 14.4389 19.9505C14.6805 19.9832 14.9291 20 15.1846 20C16.0557 20 16.9366 19.7585 17.8267 19.2756C18.7828 18.7454 19.3603 18.2435 19.5592 17.7696C19.6637 17.5331 19.7628 17.2088 19.8575 16.7968C19.9524 16.3849 19.9996 16.0512 19.9996 15.7955C19.9999 15.6625 19.9856 15.5632 19.9571 15.4963Z" fill="black"/>
</g>
<defs>
<clipPath id="clip0_57_556">
<rect width="20" height="20" fill="white"/>
</clipPath>
</defs>
</svg>
